HIERARCHY
ROOT Hips
{
  OFFSET 0.0 0.9 0.0
  CHANNELS 6 Xposition Yposition Zposition Zrotation Xrotation Yrotation
  JOINT LeftKnee
  {
    OFFSET 0.0 -0.4 0.0
    CHANNELS 3 Zrotation Xrotation Yrotation
    End Site
    {
      OFFSET 0.0 -0.4 0.0
    }
  }
}
MOTION
Frames: 3
Frame Time: 0.02
0.0 0.0 0.0 0.0 0.0 0.0 0.0 0.0 0.0
0.0 0.0 0.0 2.0 0.0 0.0 -5.0 0.0 0.0
0.0 0.0 0.0 4.0 0.0 0.0 -10.0 0.0 0.0
